<?xml version="1.0" standalone="no"?>
<!DOCTYPE svg PUBLIC "-//W3C//DTD SVG 20010904//EN"
 "http://www.w3.org/TR/2001/REC-SVG-20010904/DTD/svg10.dtd">
<svg version="1.0" xmlns="http://www.w3.org/2000/svg"
 width="128.000000pt" height="128.000000pt" viewBox="0 0 128.000000 128.000000"
 preserveAspectRatio="xMidYMid meet">

<g transform="translate(0.000000,128.000000) scale(0.100000,-0.100000)"
fill="#000000" stroke="none">
<path d="M0 640 l0 -640 640 0 640 0 0 640 0 640 -640 0 -640 0 0 -640z m738
272 c10 -7 0 -36 -43 -127 -30 -64 -55 -119 -55 -121 0 -2 25 -4 56 -4 52 0
55 -1 52 -22 -3 -22 -8 -23 -105 -26 -57 -1 -103 -1 -103 2 0 2 25 57 55 122
61 128 60 134 -7 134 -31 0 -38 4 -38 19 0 11 8 22 18 24 30 8 157 7 170 -1z
m2 -406 c0 -8 10 -16 23 -18 18 -2 22 -10 23 -43 1 -32 1 -34 -3 -7 -3 23 -9
32 -24 32 -14 0 -19 -7 -19 -30 0 -16 -4 -30 -10 -30 -5 0 -10 25 -10 55 0 30
5 55 10 55 6 0 10 -6 10 -14z m-536 -8 c-4 -7 -16 -25 -26 -41 -15 -21 -16
-28 -6 -31 7 -3 20 -7 28 -9 8 -3 -4 -6 -28 -6 l-43 -1 31 44 30 45 -32 4
c-28 3 -27 4 10 5 32 2 41 -1 36 -10z m86 -18 c0 -5 -10 -10 -22 -11 -22 -1
-22 -1 2 -8 16 -4 25 -14 25 -26 0 -16 -7 -20 -35 -21 -26 -1 -28 -1 -7 3 31
5 37 23 8 23 -20 0 -35 25 -25 41 7 12 54 11 54 -1z m100 -47 l0 -53 -32 1
c-24 1 -27 3 -10 6 12 2 22 8 22 13 0 5 -10 10 -22 12 -15 2 -24 11 -26 26 -6
38 5 51 38 49 29 -2 30 -3 30 -54z m88 14 c3 -38 3 -38 -30 -35 -41 4 -47 38
-8 49 24 7 24 7 3 8 -13 1 -23 6 -23 12 0 6 12 9 28 7 23 -3 27 -8 30 -41z
m129 -2 c1 -35 1 -36 -5 -10 -4 17 -15 31 -25 33 -13 3 -17 -4 -19 -30 l-1
-33 -4 33 c-3 19 -10 32 -19 32 -13 0 -18 -11 -15 -37 1 -6 -3 -14 -9 -18 -6
-4 -10 9 -10 33 l0 39 53 -1 52 -1 2 -40z m91 18 c3 -19 -1 -23 -22 -23 -35 0
-33 -17 2 -23 20 -4 18 -4 -8 -3 -29 1 -36 5 -38 24 -6 38 5 54 35 50 20 -2
29 -9 31 -25z m180 -15 c3 -36 2 -38 -26 -38 -23 0 -31 5 -34 23 -7 42 2 58
30 55 23 -3 27 -8 30 -40z m63 -28 c15 0 19 7 19 38 0 22 3 32 8 24 5 -7 7
-26 4 -42 -4 -25 -9 -30 -33 -30 -28 0 -29 2 -27 43 l1 42 4 -37 c3 -30 9 -38
24 -38z m109 60 c0 -5 -10 -10 -22 -11 -22 -1 -22 -1 2 -8 15 -4 26 -15 28
-29 3 -19 -1 -22 -30 -21 -21 1 -26 3 -13 6 34 8 41 23 12 23 -20 0 -27 5 -27
18 0 10 3 22 7 25 10 11 43 8 43 -3z m98 -17 c3 -19 -1 -23 -22 -23 -35 0 -33
-17 2 -23 20 -4 18 -4 -8 -3 -29 1 -36 5 -38 24 -6 38 5 54 35 50 20 -2 29 -9
31 -25z"/>
<path d="M330 450 c0 -13 7 -20 20 -20 13 0 20 7 20 20 0 13 -7 20 -20 20 -13
0 -20 -7 -20 -20z"/>
<path d="M430 430 c0 -5 7 -10 15 -10 8 0 15 5 15 10 0 6 -7 10 -15 10 -8 0
-15 -4 -15 -10z"/>
<path d="M655 460 c4 -6 11 -8 16 -5 14 9 11 15 -7 15 -8 0 -12 -5 -9 -10z"/>
<path d="M830 444 c0 -33 33 -30 38 4 3 17 -2 22 -17 22 -16 0 -21 -6 -21 -26z"/>
<path d="M1108 463 c7 -3 16 -2 19 1 4 3 -2 6 -13 5 -11 0 -14 -3 -6 -6z"/>
</g>
</svg>
